<?xml version="1.0" encoding="utf-8"?>
<!-- Generator: Adobe Illustrator 16.0.4, SVG Export Plug-In . SVG Version: 6.00 Build 0)  -->
<!DOCTYPE svg PUBLIC "-//W3C//DTD SVG 1.1//EN" "http://www.w3.org/Graphics/SVG/1.1/DTD/svg11.dtd">
<svg version="1.1" id="Layer_1" xmlns="http://www.w3.org/2000/svg" xmlns:xlink="http://www.w3.org/1999/xlink" x="0px" y="0px"
	 width="240px" height="70px" viewBox="21.73 7.52 240 70" enable-background="new 21.73 7.52 240 70" xml:space="preserve">
<g>
	<path fill="#FFFFFF" d="M37.084,19.577H28.88v10.765h8.25c4.035,0,6.599-2.11,6.599-5.406
		C43.73,21.405,41.257,19.577,37.084,19.577 M43.822,46.516l-7.884-11.183h-7.059v11.183h-5.636V14.443h14.301
		c7.377,0,11.913,3.896,11.913,10.171c0,5.312-3.162,8.52-7.653,9.757l8.664,12.146H43.822z"/>
	<path fill="#FFFFFF" d="M83.639,38.95c0,2.156,1.099,3.027,2.976,3.027c1.24,0,2.339-0.273,3.438-0.826v4.541
		c-1.374,0.779-2.934,1.236-4.995,1.236c-4.082,0-6.967-1.787-6.967-7.106V27.085h-3.072v-4.763h3.072V15.68h5.547v6.643h6.506
		v4.763h-6.506V38.95z"/>
	<path fill="#FFFFFF" d="M109.076,32.722c-0.369-3.573-2.475-6.366-6.142-6.366c-3.394,0-5.772,2.611-6.28,6.366H109.076z
		 M103.668,42.528c2.701,0,4.63-1.008,6.552-2.891l3.256,2.891c-2.292,2.75-5.456,4.537-9.901,4.537
		c-7.012,0-12.42-5.088-12.42-12.603c0-6.965,4.905-12.646,11.824-12.646c7.701,0,11.596,6.049,11.596,13.057
		c0,0.505-0.045,0.964-0.092,1.512H96.701C97.343,40.327,100.092,42.528,103.668,42.528"/>
	<path fill="#FFFFFF" d="M133.65,47.065c-9.353,0-16.323-7.291-16.323-16.542c0-9.162,6.833-16.629,16.551-16.629
		c5.914,0,9.486,2.062,12.561,4.995l-3.622,4.166c-2.568-2.38-5.32-3.986-8.983-3.986c-6.141,0-10.594,5.041-10.594,11.362
		c0,6.32,4.454,11.456,10.594,11.456c3.941,0,6.461-1.61,9.208-4.173l3.624,3.666C143.318,44.872,139.653,47.065,133.65,47.065"/>
	<path fill="#FFFFFF" d="M149.28,22.323h5.547v24.195h-5.547V22.323z M149.052,14.443h5.958v5.27h-5.958V14.443z"/>
	<path fill="#FFFFFF" d="M165.888,38.95c0,2.156,1.099,3.027,2.974,3.027c1.241,0,2.339-0.273,3.438-0.826v4.541
		c-1.369,0.779-2.928,1.236-4.993,1.236c-4.074,0-6.965-1.787-6.965-7.106V27.085h-3.069v-4.763h3.069V15.68h5.547v6.643h6.508
		v4.763h-6.508V38.95z"/>
	<path fill="#FFFFFF" d="M189.66,47.204c-1.924,4.949-4.08,6.781-7.973,6.781c-2.336,0-4.034-0.549-5.729-1.465l1.883-4.125
		c1.003,0.549,2.107,0.914,3.252,0.914c1.56,0,2.522-0.688,3.436-2.793l-10.08-24.192h5.914l6.872,17.954l6.279-17.954h5.771
		L189.66,47.204z"/>
	<path fill="#FFFFFF" d="M61.146,41.903c-3.601,0-6.53-3.357-6.53-7.481c0-4.125,2.929-7.479,6.53-7.479
		c3.605,0,6.536,3.354,6.536,7.479C67.681,38.545,64.751,41.903,61.146,41.903 M67.575,22.323v2.126
		c-1.887-1.68-4.26-2.679-6.839-2.679c-6.132,0-11.107,5.661-11.107,12.646c0,6.986,4.974,12.645,11.107,12.645
		c2.58,0,4.953-0.998,6.839-2.678v2.135h5.5V22.323H67.575z"/>
	<path fill="#95DC81" d="M232.958,12.528c-15.311,0-27.767,12.26-27.767,27.328c0,15.072,12.456,27.332,27.767,27.332
		c1.941,0,3.732-0.246,3.183-0.184h-0.002c2.26-0.408,2.944-2.408,2.11-4.559l-0.004-0.008c2.234-0.504,4.348-1.318,6.291-2.398
		l0.003,0.006c0.844,2.172,3.157,2.916,4.457,2.102c7.091-4.955,11.733-13.098,11.733-22.29
		C260.729,24.788,248.27,12.528,232.958,12.528"/>
	<path fill="#25A400" d="M256.52,39.856c0,12.801-10.548,23.178-23.562,23.178c-13.012,0-23.561-10.377-23.561-23.178
		c0-12.797,10.549-23.169,23.561-23.169C245.972,16.687,256.52,27.059,256.52,39.856"/>
	<path fill="#FFFFFF" d="M236.139,67.002c4.853-0.34,10.572-2.912,12.857-4.855c-1.3,0.814-3.613,0.07-4.457-2.102l-0.364-0.932
		l-2.969-7.621l-1.381-3.547l3.807,0.178l1.235,0.057l1.235,0.057h0.004c2.092,0.098,2.635-1.078,1.206-2.607l-18.204-19.514
		c-1.431-1.535-2.604-1.074-2.604,1.023v26.686c0,2.096,1.2,2.582,2.666,1.088l0,0l0.864-0.889l0.863-0.887l2.664-2.727l1.381,3.549
		l2.968,7.621l0.338,0.865C239.083,64.594,238.398,66.598,236.139,67.002"/>
	<path fill="#FFFFFF" d="M24.975,61.067c0.411,0,0.616,0.168,0.616,0.506c0,0.252-0.189,0.443-0.572,0.57
		c-0.657,0.238-0.984,0.66-0.984,1.271c0,0.486,0.19,0.869,0.572,1.143c0.329,0.23,0.744,0.346,1.249,0.346
		c1.007,0,1.889-0.293,2.645-0.883c0.473-0.373,0.71-0.846,0.71-1.416c0-0.354-0.068-0.672-0.206-0.951
		c-0.146-0.291-0.367-0.656-0.664-1.1c-0.458-0.688-0.844-1.312-1.158-1.879c-0.351-0.625-0.526-1.238-0.526-1.842
		c0-1.426,0.706-2.764,2.119-4.006c0.748-0.648,1.571-1.176,2.474-1.58c0.746-0.326,1.469-0.49,2.164-0.49
		c0.451,0,0.832,0.117,1.145,0.355c0.381,0.281,0.572,0.666,0.572,1.154c0,0.764-0.412,1.588-1.237,2.471
		c-0.778,0.834-1.688,1.512-2.726,2.039c-0.52,0.26-0.912,0.389-1.179,0.389c-0.176,0-0.333-0.072-0.469-0.217
		c-0.092-0.1-0.137-0.209-0.137-0.332c0-0.281,0.252-0.51,0.756-0.686c0.922-0.328,1.74-0.789,2.451-1.385
		c0.915-0.762,1.374-1.432,1.374-2.002c0-0.221-0.092-0.4-0.274-0.539c-0.146-0.105-0.318-0.16-0.516-0.16
		c-0.527,0-1.187,0.203-1.981,0.607c-1.069,0.541-1.908,1.24-2.519,2.094c-0.535,0.738-0.802,1.461-0.802,2.164
		c0,0.512,0.141,1.035,0.423,1.578c0.236,0.436,0.538,0.926,0.905,1.477c0.35,0.527,0.649,1.014,0.894,1.465
		c0.283,0.531,0.424,1.033,0.424,1.5c0,0.898-0.516,1.695-1.547,2.391c-0.877,0.58-1.872,0.869-2.977,0.869
		c-1.092,0-1.946-0.301-2.565-0.902c-0.465-0.459-0.698-0.986-0.698-1.58c0-0.664,0.221-1.221,0.664-1.67
		c0.268-0.277,0.584-0.482,0.951-0.619C24.595,61.118,24.805,61.067,24.975,61.067"/>
	<path fill="#FFFFFF" d="M34.002,61.676c0.641-0.674,1.206-1.199,1.694-1.582c0.74-0.57,1.237-0.855,1.49-0.855
		c0.122,0,0.229,0.045,0.32,0.135c0.083,0.084,0.125,0.176,0.125,0.275c0,0.146-0.133,0.383-0.401,0.709
		c-0.412,0.52-0.698,0.963-0.859,1.33c1.786-1.795,3.008-2.691,3.666-2.691c0.137,0,0.255,0.043,0.354,0.129
		c0.107,0.09,0.161,0.205,0.161,0.34c0,0.215-0.165,0.49-0.493,0.826c-1.442,1.488-2.164,2.709-2.164,3.662
		c0,0.389,0.069,0.668,0.207,0.836l0.297,0.377c0.061,0.068,0.092,0.156,0.092,0.262c0,0.123-0.049,0.236-0.148,0.346
		c-0.115,0.121-0.244,0.182-0.39,0.182c-0.252,0-0.485-0.16-0.698-0.48c-0.26-0.383-0.39-0.832-0.39-1.352
		c0-0.695,0.199-1.396,0.596-2.105c0.137-0.252,0.366-0.586,0.688-1.01c-0.649,0.49-1.309,1.16-1.98,2.018
		c-0.458,0.578-0.871,1.227-1.237,1.943c-0.175,0.344-0.382,0.516-0.619,0.516c-0.259,0-0.389-0.143-0.389-0.436
		c0-0.312,0.213-0.957,0.64-1.932c0.245-0.557,0.545-1.146,0.906-1.764c-1.305,1.008-2.287,2.373-2.943,4.094
		c-0.159,0.385-0.374,0.574-0.641,0.574c-0.122,0-0.222-0.045-0.297-0.137c-0.084-0.092-0.126-0.201-0.126-0.33
		c0-0.451,0.252-1.264,0.756-2.438c0.527-1.246,1.123-2.361,1.786-3.355c0.458-0.693,0.813-1.041,1.065-1.041
		c0.229,0,0.344,0.123,0.344,0.367c0,0.105-0.142,0.373-0.424,0.801C34.491,60.692,34.163,61.286,34.002,61.676"/>
	<path fill="#FFFFFF" d="M43.49,63.596c-0.251,0.443-0.5,0.818-0.743,1.121c-0.482,0.598-0.959,0.896-1.432,0.896
		c-0.412,0-0.733-0.197-0.962-0.586c-0.145-0.252-0.218-0.549-0.218-0.891c0-0.848,0.268-1.783,0.802-2.805
		c0.595-1.139,1.314-2.012,2.153-2.621c0.549-0.398,1.081-0.596,1.591-0.596c0.32,0,0.588,0.098,0.802,0.299
		c0.183,0.174,0.274,0.373,0.274,0.594c0,0.166-0.065,0.4-0.193,0.697c0.114,0.16,0.172,0.303,0.172,0.424
		c0,0.162-0.107,0.424-0.32,0.789c-0.222,0.373-0.442,0.871-0.664,1.488c-0.237,0.658-0.355,1.184-0.355,1.58
		c0,0.32,0.096,0.584,0.287,0.789c0.053,0.055,0.21,0.143,0.469,0.264c0.19,0.092,0.286,0.252,0.286,0.48
		c0,0.145-0.054,0.264-0.161,0.355c-0.115,0.098-0.248,0.148-0.4,0.148c-0.412,0-0.767-0.182-1.064-0.547
		c-0.245-0.297-0.367-0.674-0.367-1.123C43.444,64.202,43.459,63.948,43.49,63.596 M44.921,59.833
		c-0.092-0.168-0.19-0.291-0.298-0.373c-0.106-0.08-0.221-0.119-0.343-0.119c-0.581,0-1.21,0.506-1.89,1.521
		c-0.749,1.123-1.124,2.072-1.124,2.852c0,0.189,0.037,0.334,0.11,0.436c0.072,0.1,0.181,0.146,0.326,0.146
		c0.368,0,0.795-0.387,1.283-1.166c0.274-0.428,0.614-1.057,1.019-1.889c0.267-0.541,0.461-0.9,0.584-1.076
		C44.65,60.073,44.76,59.963,44.921,59.833"/>
	<path fill="#FFFFFF" d="M48.511,61.719c0.749-0.801,1.611-1.58,2.588-2.346c0.351-0.273,0.726-0.529,1.122-0.766
		c0.2-0.115,0.325-0.172,0.379-0.172c0.115,0,0.229,0.082,0.343,0.25c0.069,0.092,0.103,0.176,0.103,0.252
		c0,0.139-0.146,0.326-0.435,0.562c-0.779,0.617-1.168,1.082-1.168,1.396c0,0.176,0.1,0.264,0.297,0.264
		c0.33,0,0.894-0.271,1.695-0.814c0.137-0.09,0.252-0.135,0.343-0.135c0.061,0,0.122,0.029,0.183,0.092
		c0.069,0.066,0.103,0.139,0.103,0.217c0,0.229-0.321,0.578-0.961,1.053c-0.674,0.504-1.311,0.756-1.913,0.756
		c-0.245,0-0.469-0.064-0.676-0.195c-0.175-0.105-0.262-0.295-0.262-0.572c0-0.189,0.08-0.406,0.24-0.65
		c-0.603,0.426-1.314,1.158-2.131,2.195c-0.473,0.643-0.942,1.432-1.408,2.371c-0.176,0.35-0.394,0.525-0.653,0.525
		c-0.282,0-0.423-0.135-0.423-0.4c0-0.26,0.221-0.953,0.664-2.082c0.655-1.68,1.344-2.982,2.06-3.904
		c0.444-0.572,0.813-0.859,1.112-0.859c0.1,0,0.191,0.031,0.274,0.094c0.1,0.074,0.149,0.172,0.149,0.287
		c0,0.113-0.077,0.273-0.23,0.479c-0.031,0.039-0.233,0.295-0.607,0.768C48.958,60.831,48.695,61.278,48.511,61.719"/>
	<path fill="#FFFFFF" d="M58.021,58.116c-0.496,0.771-0.954,1.633-1.375,2.586c-0.603,1.357-0.903,2.373-0.903,3.045
		c0,0.189,0.04,0.334,0.12,0.436c0.079,0.098,0.2,0.146,0.36,0.146c0.382,0,0.844-0.357,1.387-1.074
		c0.344-0.441,0.648-0.883,0.915-1.328c0.145-0.252,0.302-0.377,0.469-0.377c0.099,0,0.183,0.033,0.252,0.104
		c0.06,0.068,0.092,0.135,0.092,0.205c0,0.283-0.371,0.91-1.11,1.889c-0.886,1.176-1.695,1.762-2.428,1.762
		c-0.389,0-0.713-0.178-0.974-0.537c-0.16-0.229-0.239-0.553-0.239-0.971c0-0.924,0.268-2.002,0.801-3.23
		c0.13-0.303,0.489-1.041,1.077-2.207c-0.208,0.055-0.364,0.08-0.469,0.08c-0.161,0-0.304-0.039-0.425-0.115
		c-0.167-0.105-0.251-0.24-0.251-0.4c0-0.189,0.111-0.344,0.332-0.457c0.06-0.031,0.344-0.082,0.847-0.15
		c0.184-0.029,0.451-0.102,0.803-0.217c0.267-0.482,0.701-1.133,1.304-1.957c0.335-0.457,0.568-0.756,0.699-0.893
		c0.184-0.191,0.344-0.287,0.48-0.287c0.1,0,0.198,0.055,0.298,0.16c0.092,0.1,0.137,0.199,0.137,0.299
		c0,0.197-0.213,0.59-0.64,1.18c-0.283,0.379-0.493,0.689-0.631,0.926c0.848-0.229,1.455-0.344,1.821-0.344
		c0.419,0,0.629,0.178,0.629,0.525c0,0.176-0.073,0.307-0.217,0.391c-0.077,0.045-0.275,0.084-0.596,0.115
		c-0.13-0.01-0.707,0.135-1.729,0.434C58.575,57.938,58.295,58.024,58.021,58.116"/>
	<path fill="#FFFFFF" d="M60.683,63.288v0.209c0,0.166,0.041,0.311,0.126,0.432c0.19,0.285,0.504,0.426,0.938,0.426
		c0.955,0,2.058-0.732,3.31-2.197c0.221-0.252,0.407-0.377,0.561-0.377c0.083,0,0.161,0.041,0.229,0.125
		c0.045,0.059,0.068,0.117,0.068,0.174c0,0.297-0.366,0.799-1.099,1.508c-0.572,0.559-1.184,1.012-1.832,1.361
		c-0.65,0.354-1.253,0.529-1.809,0.529c-0.573,0-1.023-0.199-1.351-0.596c-0.221-0.275-0.333-0.648-0.333-1.121
		c0-1.291,0.606-2.553,1.821-3.789c0.986-1.008,1.843-1.512,2.578-1.512c0.197,0,0.377,0.061,0.537,0.184
		c0.198,0.16,0.298,0.369,0.298,0.631c0,0.404-0.187,0.898-0.562,1.488C63.393,61.979,62.232,62.825,60.683,63.288 M60.934,62.395
		c0.535-0.182,0.955-0.389,1.26-0.617c0.535-0.412,0.958-0.877,1.272-1.396c0.115-0.182,0.173-0.346,0.173-0.49
		c0-0.154-0.072-0.229-0.218-0.229c-0.198,0-0.481,0.148-0.847,0.445C61.917,60.633,61.371,61.397,60.934,62.395"/>
	<path fill="#FFFFFF" d="M68.545,61.719c0.747-0.801,1.609-1.58,2.586-2.346c0.35-0.273,0.725-0.529,1.122-0.766
		c0.199-0.115,0.325-0.172,0.378-0.172c0.115,0,0.229,0.082,0.344,0.25c0.069,0.092,0.102,0.176,0.102,0.252
		c0,0.139-0.144,0.326-0.435,0.562c-0.779,0.617-1.167,1.082-1.167,1.396c0,0.176,0.099,0.264,0.296,0.264
		c0.329,0,0.893-0.271,1.694-0.814c0.137-0.09,0.252-0.135,0.344-0.135c0.061,0,0.122,0.029,0.184,0.092
		c0.069,0.066,0.103,0.139,0.103,0.217c0,0.229-0.32,0.578-0.962,1.053c-0.672,0.504-1.309,0.756-1.911,0.756
		c-0.245,0-0.471-0.064-0.676-0.195c-0.176-0.105-0.264-0.295-0.264-0.572c0-0.189,0.08-0.406,0.241-0.65
		c-0.603,0.426-1.313,1.158-2.131,2.195c-0.474,0.643-0.943,1.432-1.409,2.371c-0.174,0.35-0.392,0.525-0.652,0.525
		c-0.283,0-0.425-0.135-0.425-0.4c0-0.26,0.223-0.953,0.665-2.082c0.656-1.68,1.342-2.982,2.062-3.904
		c0.441-0.572,0.813-0.859,1.109-0.859c0.1,0,0.192,0.031,0.275,0.094c0.099,0.074,0.149,0.172,0.149,0.287
		c0,0.113-0.078,0.273-0.229,0.479c-0.031,0.039-0.233,0.295-0.607,0.768C68.991,60.831,68.727,61.278,68.545,61.719"/>
	<path fill="#FFFFFF" d="M82.308,59.477c0.649-0.551,1.233-0.824,1.752-0.824c0.32,0,0.584,0.135,0.79,0.402
		c0.192,0.236,0.287,0.51,0.287,0.822c0,0.596-0.194,1.318-0.584,2.164c-0.435,0.938-1.065,1.811-1.89,2.621
		c-0.68,0.67-1.328,1.006-1.947,1.006c-0.229,0-0.437-0.041-0.624-0.127c-0.187-0.084-0.352-0.209-0.498-0.375
		c-0.061,0.105-0.099,0.176-0.115,0.205c-0.129,0.281-0.219,0.455-0.27,0.516c-0.049,0.061-0.126,0.092-0.233,0.092
		c-0.138,0-0.268-0.082-0.39-0.242c-0.084-0.105-0.126-0.221-0.126-0.342c0-0.215,0.44-1.293,1.318-3.238
		c1.229-2.717,2.653-5.416,4.271-8.104c0.657-1.098,1.057-1.744,1.203-1.934c0.161-0.229,0.309-0.344,0.446-0.344
		c0.167,0,0.316,0.084,0.447,0.252c0.084,0.107,0.125,0.232,0.125,0.377c0,0.162-0.073,0.363-0.218,0.607
		c-0.031,0.055-0.271,0.447-0.722,1.18C83.95,56.329,82.943,58.088,82.308,59.477 M80.38,64.436
		c0.118,0.072,0.242,0.113,0.372,0.113c0.664,0,1.366-0.576,2.107-1.729c0.344-0.52,0.614-1.035,0.813-1.545
		c0.174-0.457,0.263-0.797,0.263-1.018c0-0.156-0.034-0.266-0.102-0.34c-0.068-0.072-0.175-0.105-0.321-0.105
		c-0.35,0-0.774,0.24-1.271,0.719c-0.497,0.473-0.986,1.156-1.466,2.049c-0.229,0.426-0.428,0.826-0.595,1.201l-0.149,0.309
		C80.146,64.243,80.262,64.358,80.38,64.436"/>
	<path fill="#FFFFFF" d="M89.894,62.282c-0.679,0.803-1.221,1.396-1.625,1.785c-0.802,0.762-1.47,1.143-2.004,1.143
		c-0.258,0-0.466-0.092-0.618-0.283c-0.115-0.154-0.172-0.344-0.172-0.572c0-0.824,0.487-1.92,1.465-3.285
		c0.992-1.389,1.71-2.082,2.153-2.082c0.122,0,0.23,0.053,0.321,0.158c0.084,0.086,0.126,0.186,0.126,0.299
		c0,0.168-0.044,0.316-0.132,0.439c-0.087,0.129-0.338,0.41-0.75,0.844c-0.436,0.449-0.835,0.938-1.202,1.463
		c-0.419,0.598-0.63,1.029-0.63,1.307c0,0.16,0.077,0.238,0.229,0.238c0.306,0,0.878-0.414,1.718-1.246
		c0.526-0.527,0.94-0.971,1.237-1.328c0.061-0.078,0.329-0.439,0.801-1.09c0.427-0.57,0.691-0.912,0.79-1.016
		c0.229-0.268,0.444-0.402,0.642-0.402c0.121,0,0.232,0.053,0.332,0.16c0.091,0.098,0.137,0.213,0.137,0.344
		c0,0.221-0.154,0.592-0.458,1.109c-0.367,0.635-0.702,1.223-1.009,1.773c-0.479,0.855-0.851,1.619-1.111,2.289
		c0.49-0.281,0.936-0.629,1.34-1.041c0.688-0.686,1.108-1.197,1.261-1.535c0.145-0.301,0.293-0.455,0.447-0.455
		c0.213,0,0.32,0.107,0.32,0.322c0,0.402-0.343,1.004-1.029,1.805c-0.826,0.963-1.84,1.779-3.047,2.451
		c-0.641,1.541-1.248,2.818-1.821,3.834c-1.068,1.869-2.172,2.803-3.31,2.803c-0.465,0-0.84-0.178-1.121-0.537
		c-0.221-0.275-0.332-0.621-0.332-1.041c0-1.189,0.836-2.408,2.508-3.652c0.488-0.367,1.214-0.822,2.175-1.373
		c0.389-0.221,0.694-0.4,0.917-0.537c0.136-0.352,0.347-0.818,0.629-1.396C89.384,63.35,89.659,62.786,89.894,62.282 M87.788,66.78
		c-0.809,0.412-1.638,0.996-2.485,1.764c-0.855,0.785-1.282,1.518-1.282,2.197c0,0.143,0.042,0.264,0.126,0.365
		c0.115,0.137,0.263,0.207,0.446,0.207c0.572,0,1.206-0.6,1.901-1.797c0.114-0.199,0.428-0.857,0.938-1.982
		C87.54,67.305,87.658,67.053,87.788,66.78"/>
	<path fill="#FFFFFF" d="M109.408,50.768c0.511,0,0.905,0.184,1.18,0.551c0.221,0.289,0.333,0.639,0.333,1.053
		c0,0.738-0.249,1.582-0.744,2.527c-0.435,0.816-0.978,1.549-1.626,2.197c-0.429,0.42-0.765,0.633-1.009,0.633
		c-0.159,0-0.309-0.082-0.446-0.24c-0.1-0.117-0.149-0.246-0.149-0.393c0-0.266,0.233-0.57,0.698-0.916
		c0.657-0.486,1.18-1.02,1.57-1.602c0.573-0.838,0.858-1.547,0.858-2.127c0-0.238-0.051-0.412-0.154-0.525
		c-0.103-0.115-0.258-0.174-0.464-0.174c-0.42,0-1.016,0.307-1.787,0.914c-0.877,0.688-1.805,1.621-2.783,2.805
		c-1.244,1.504-2.191,2.984-2.839,4.441c-0.673,1.512-1.009,2.801-1.009,3.869c0,0.51,0.149,0.945,0.447,1.305
		c0.328,0.402,0.728,0.605,1.203,0.605c0.824,0,1.862-0.641,3.115-1.92c0.374-0.391,0.828-0.955,1.362-1.695
		c0.35-0.473,0.577-0.809,0.677-1.008c0.115-0.221,0.248-0.33,0.401-0.33c0.168,0,0.252,0.078,0.252,0.24
		c0,0.342-0.427,1.113-1.282,2.311c-0.711,0.998-1.493,1.816-2.348,2.449c-0.961,0.709-1.87,1.064-2.725,1.064
		c-0.895,0-1.585-0.402-2.073-1.201c-0.313-0.512-0.469-1.096-0.469-1.752c0-1.648,0.778-3.727,2.335-6.236
		c1.329-2.137,2.729-3.855,4.202-5.162C107.408,51.329,108.5,50.768,109.408,50.768"/>
	<path fill="#FFFFFF" d="M113.548,58.104c0.625,0,0.938,0.381,0.938,1.145c0,1.016-0.468,2.301-1.407,3.855
		c-1.024,1.688-2.012,2.531-2.966,2.531c-0.442,0-0.767-0.207-0.974-0.617c-0.106-0.207-0.16-0.455-0.16-0.746
		c0-0.975,0.336-2.037,1.008-3.18c0.626-1.061,1.362-1.885,2.209-2.471C112.692,58.274,113.143,58.104,113.548,58.104
		 M112.357,62.43c-0.191-0.152-0.288-0.271-0.288-0.354c0-0.062,0.124-0.229,0.367-0.504c0.688-0.771,1.031-1.393,1.031-1.867
		c0-0.061-0.019-0.121-0.057-0.182c-0.061-0.117-0.156-0.172-0.286-0.172c-0.245,0-0.604,0.236-1.077,0.709
		c-0.61,0.611-1.075,1.24-1.396,1.887c-0.374,0.74-0.562,1.355-0.562,1.844c0,0.131,0.035,0.242,0.104,0.344
		c0.1,0.135,0.225,0.205,0.378,0.205c0.367,0,0.759-0.275,1.179-0.824c0.183-0.229,0.332-0.465,0.447-0.709
		C112.311,62.565,112.364,62.438,112.357,62.43"/>
	<path fill="#FFFFFF" d="M116.771,61.676c0.641-0.674,1.205-1.199,1.694-1.582c0.741-0.57,1.237-0.855,1.488-0.855
		c0.122,0,0.229,0.045,0.322,0.135c0.083,0.084,0.126,0.176,0.126,0.275c0,0.146-0.135,0.383-0.402,0.709
		c-0.411,0.52-0.698,0.963-0.858,1.33c1.786-1.795,3.008-2.691,3.666-2.691c0.137,0,0.255,0.043,0.354,0.129
		c0.107,0.09,0.16,0.205,0.16,0.34c0,0.215-0.164,0.49-0.492,0.826c-1.443,1.488-2.165,2.709-2.165,3.662
		c0,0.389,0.07,0.668,0.208,0.836l0.297,0.377c0.06,0.068,0.092,0.156,0.092,0.262c0,0.123-0.05,0.236-0.15,0.346
		c-0.114,0.121-0.243,0.182-0.388,0.182c-0.252,0-0.485-0.16-0.699-0.48c-0.26-0.383-0.39-0.832-0.39-1.352
		c0-0.695,0.198-1.396,0.596-2.105c0.138-0.252,0.367-0.586,0.687-1.01c-0.647,0.49-1.309,1.16-1.98,2.018
		c-0.458,0.578-0.87,1.227-1.236,1.943c-0.176,0.344-0.382,0.516-0.619,0.516c-0.259,0-0.39-0.143-0.39-0.436
		c0-0.312,0.214-0.957,0.642-1.932c0.245-0.557,0.546-1.146,0.904-1.764c-1.306,1.008-2.287,2.373-2.942,4.094
		c-0.16,0.385-0.373,0.574-0.642,0.574c-0.122,0-0.221-0.045-0.297-0.137c-0.084-0.092-0.126-0.201-0.126-0.33
		c0-0.451,0.252-1.264,0.755-2.438c0.528-1.246,1.123-2.361,1.787-3.355c0.458-0.693,0.813-1.041,1.065-1.041
		c0.229,0,0.344,0.123,0.344,0.367c0,0.105-0.141,0.373-0.425,0.801C117.26,60.692,116.931,61.286,116.771,61.676"/>
	<path fill="#FFFFFF" d="M126.659,59.409c0.312-0.199,0.545-0.336,0.698-0.412c0.312-0.15,0.618-0.227,0.915-0.227
		c0.336,0,0.589,0.096,0.756,0.289c0.168,0.195,0.252,0.488,0.252,0.875c0,0.537-0.187,1.176-0.561,1.924
		c-0.58,1.182-1.283,2.113-2.107,2.793c-0.695,0.57-1.347,0.857-1.959,0.857c-0.335,0-0.667-0.129-0.996-0.389
		c-1.044,2.115-1.981,4.268-2.806,6.467c-0.175,0.525-0.382,0.789-0.619,0.789c-0.115,0-0.229-0.076-0.344-0.229
		c-0.083-0.107-0.125-0.226-0.125-0.355c0-0.412,0.504-1.75,1.511-4.018c1.557-3.494,3.036-6.396,4.432-8.709
		c0.29-0.488,0.484-0.824,0.584-1.008c0.268-0.496,0.525-0.744,0.778-0.744c0.26,0,0.389,0.158,0.389,0.469
		c0,0.178-0.09,0.414-0.275,0.711C126.964,58.875,126.788,59.18,126.659,59.409 M124.082,64.159
		c0.168,0.176,0.379,0.264,0.629,0.264c0.709,0,1.496-0.631,2.36-1.889c0.32-0.465,0.576-0.943,0.768-1.432
		c0.151-0.389,0.229-0.682,0.229-0.879c0-0.139-0.033-0.242-0.098-0.311c-0.064-0.068-0.166-0.102-0.304-0.102
		c-0.359,0-0.797,0.248-1.318,0.744c-0.495,0.48-0.972,1.156-1.43,2.027C124.498,63.379,124.22,63.907,124.082,64.159"/>
	<path fill="#FFFFFF" d="M132.677,63.596c-0.253,0.443-0.5,0.818-0.745,1.121c-0.482,0.598-0.958,0.896-1.432,0.896
		c-0.412,0-0.733-0.197-0.962-0.586c-0.145-0.252-0.217-0.549-0.217-0.891c0-0.848,0.266-1.783,0.802-2.805
		c0.595-1.139,1.313-2.012,2.152-2.621c0.55-0.398,1.081-0.596,1.592-0.596c0.32,0,0.588,0.098,0.802,0.299
		c0.182,0.174,0.274,0.373,0.274,0.594c0,0.166-0.065,0.4-0.194,0.697c0.114,0.16,0.173,0.303,0.173,0.424
		c0,0.162-0.107,0.424-0.321,0.789c-0.222,0.373-0.443,0.871-0.664,1.488c-0.236,0.658-0.355,1.184-0.355,1.58
		c0,0.32,0.095,0.584,0.287,0.789c0.053,0.055,0.21,0.143,0.469,0.264c0.19,0.092,0.286,0.252,0.286,0.48
		c0,0.145-0.054,0.264-0.16,0.355c-0.114,0.098-0.248,0.148-0.401,0.148c-0.412,0-0.767-0.182-1.065-0.547
		c-0.245-0.297-0.367-0.674-0.367-1.123C132.629,64.202,132.646,63.948,132.677,63.596 M134.108,59.833
		c-0.093-0.168-0.191-0.291-0.298-0.373c-0.107-0.08-0.222-0.119-0.344-0.119c-0.581,0-1.209,0.506-1.889,1.521
		c-0.749,1.123-1.123,2.072-1.123,2.852c0,0.189,0.038,0.334,0.109,0.436c0.072,0.1,0.182,0.146,0.326,0.146
		c0.366,0,0.794-0.387,1.284-1.166c0.275-0.428,0.614-1.057,1.018-1.889c0.268-0.541,0.463-0.9,0.584-1.076
		C133.836,60.073,133.947,59.963,134.108,59.833"/>
	<path fill="#FFFFFF" d="M137.697,61.719c0.749-0.801,1.611-1.58,2.587-2.346c0.352-0.273,0.725-0.529,1.123-0.766
		c0.198-0.115,0.325-0.172,0.377-0.172c0.115,0,0.229,0.082,0.344,0.25c0.068,0.092,0.103,0.176,0.103,0.252
		c0,0.139-0.145,0.326-0.436,0.562c-0.778,0.617-1.168,1.082-1.168,1.396c0,0.176,0.099,0.264,0.299,0.264
		c0.328,0,0.891-0.271,1.692-0.814c0.138-0.09,0.253-0.135,0.346-0.135c0.058,0,0.12,0.029,0.183,0.092
		c0.069,0.066,0.101,0.139,0.101,0.217c0,0.229-0.32,0.578-0.96,1.053c-0.672,0.504-1.31,0.756-1.913,0.756
		c-0.244,0-0.47-0.064-0.676-0.195c-0.176-0.105-0.263-0.295-0.263-0.572c0-0.189,0.08-0.406,0.241-0.65
		c-0.604,0.426-1.314,1.158-2.131,2.195c-0.474,0.643-0.943,1.432-1.409,2.371c-0.176,0.35-0.393,0.525-0.653,0.525
		c-0.282,0-0.424-0.135-0.424-0.4c0-0.26,0.221-0.953,0.664-2.082c0.657-1.68,1.343-2.982,2.061-3.904
		c0.443-0.572,0.813-0.859,1.109-0.859c0.101,0,0.192,0.031,0.276,0.094c0.1,0.074,0.149,0.172,0.149,0.287
		c0,0.113-0.077,0.273-0.229,0.479c-0.031,0.039-0.233,0.295-0.607,0.768C138.144,60.831,137.881,61.278,137.697,61.719"/>
	<path fill="#FFFFFF" d="M146.017,58.631c0.129,0,0.236,0.049,0.319,0.146c0.062,0.086,0.092,0.168,0.092,0.254
		c0,0.135-0.11,0.365-0.33,0.688c-0.795,1.229-1.358,2.238-1.695,3.031c-0.358,0.816-0.677,1.654-0.95,2.52
		c-0.122,0.379-0.313,0.57-0.573,0.57c-0.151,0-0.275-0.061-0.365-0.184c-0.086-0.096-0.128-0.207-0.128-0.32
		c0-0.229,0.244-0.99,0.732-2.287c0.382-1.023,1.002-2.152,1.855-3.389c0.276-0.404,0.481-0.676,0.618-0.812
		C145.732,58.702,145.872,58.631,146.017,58.631 M148.191,54.385c0.345,0,0.518,0.174,0.518,0.527c0,0.318-0.169,0.674-0.504,1.062
		c-0.321,0.373-0.631,0.562-0.929,0.562c-0.144,0-0.264-0.055-0.354-0.162c-0.093-0.098-0.139-0.221-0.139-0.365
		c0-0.367,0.201-0.756,0.607-1.168C147.689,54.538,147.955,54.385,148.191,54.385"/>
	<path fill="#FFFFFF" d="M151.601,57.887c0.473,0,0.827,0.084,1.063,0.252c0.237,0.166,0.354,0.424,0.354,0.766
		c0,0.451-0.167,0.885-0.502,1.305c-0.321,0.396-0.801,0.719-1.443,0.961c-0.352,0.131-0.645,0.195-0.883,0.195
		c-0.319,0-0.479-0.141-0.479-0.422c0-0.191,0.09-0.338,0.273-0.436c0.045-0.023,0.306-0.09,0.779-0.197
		c0.282-0.059,0.542-0.193,0.779-0.4c0.208-0.174,0.308-0.363,0.308-0.572c0-0.16-0.044-0.277-0.135-0.355
		c-0.095-0.076-0.231-0.113-0.414-0.113c-0.443,0-0.932,0.18-1.467,0.537c-0.616,0.408-0.927,0.887-0.927,1.443
		c0,0.396,0.201,0.893,0.607,1.488c0.449,0.648,0.675,1.199,0.675,1.65c0,0.67-0.297,1.193-0.893,1.578
		c-0.366,0.236-0.782,0.354-1.248,0.354c-0.732,0-1.291-0.264-1.672-0.789c-0.268-0.375-0.401-0.816-0.401-1.328
		c0-0.596,0.152-1.096,0.46-1.498c0.196-0.268,0.402-0.402,0.616-0.402c0.189,0,0.288,0.076,0.288,0.23
		c0,0.059-0.035,0.152-0.104,0.271c-0.177,0.332-0.265,0.715-0.265,1.156c0,0.375,0.136,0.691,0.403,0.951
		c0.236,0.229,0.508,0.344,0.812,0.344c0.298,0,0.53-0.1,0.698-0.299c0.14-0.166,0.206-0.379,0.206-0.639
		c0-0.32-0.183-0.736-0.549-1.248c-0.504-0.701-0.757-1.338-0.757-1.91c0-0.764,0.416-1.439,1.25-2.027
		C149.844,58.168,150.699,57.887,151.601,57.887"/>
	<path fill="#FFFFFF" d="M156.962,58.104c0.627,0,0.94,0.381,0.94,1.145c0,1.016-0.471,2.301-1.411,3.855
		c-1.021,1.688-2.01,2.531-2.966,2.531c-0.442,0-0.765-0.207-0.973-0.617c-0.105-0.207-0.161-0.455-0.161-0.746
		c0-0.975,0.338-2.037,1.01-3.18c0.625-1.061,1.362-1.885,2.209-2.471C156.106,58.274,156.559,58.104,156.962,58.104 M155.774,62.43
		c-0.192-0.152-0.287-0.271-0.287-0.354c0-0.062,0.121-0.229,0.365-0.504c0.688-0.771,1.031-1.393,1.031-1.867
		c0-0.061-0.02-0.121-0.058-0.182c-0.062-0.117-0.157-0.172-0.287-0.172c-0.245,0-0.604,0.236-1.076,0.709
		c-0.609,0.611-1.075,1.24-1.396,1.887c-0.374,0.74-0.562,1.355-0.562,1.844c0,0.131,0.035,0.242,0.104,0.344
		c0.098,0.135,0.225,0.205,0.376,0.205c0.367,0,0.76-0.275,1.182-0.824c0.181-0.229,0.331-0.465,0.445-0.709
		C155.727,62.565,155.781,62.438,155.774,62.43"/>
	<path fill="#FFFFFF" d="M160.335,61.561c0.099-0.094,0.195-0.184,0.287-0.275c1.595-1.557,2.664-2.336,3.204-2.336
		c0.299,0,0.447,0.166,0.447,0.494c0,0.227-0.134,0.498-0.399,0.812c-1.459,1.701-2.188,3.201-2.188,4.496
		c0,0.422,0.115,0.822,0.345,1.203c0.104,0.174,0.159,0.312,0.159,0.412c0,0.092-0.047,0.178-0.137,0.262
		c-0.1,0.107-0.22,0.162-0.356,0.162c-0.313,0-0.574-0.201-0.791-0.598c-0.207-0.373-0.307-0.826-0.307-1.361
		c0-1.029,0.387-2.172,1.168-3.422c-1.039,0.664-2.005,1.84-2.898,3.525c-0.229,0.406-0.473,0.605-0.733,0.605
		c-0.128,0-0.237-0.047-0.318-0.137c-0.109-0.105-0.163-0.244-0.163-0.412c0-0.41,0.471-1.49,1.41-3.24
		c0.503-0.945,0.901-1.633,1.19-2.059c0.29-0.418,0.537-0.629,0.745-0.629c0.1,0,0.194,0.045,0.287,0.135
		c0.104,0.109,0.159,0.229,0.159,0.367c0,0.168-0.11,0.408-0.332,0.723C160.793,60.756,160.533,61.18,160.335,61.561"/>
</g>
</svg>
